<svg height="140" viewBox="0 0 740 1009" fill="none" xmlns="http://www.w3.org/2000/svg">
<path d="M341.338 905.527L296.356 966.421H342.103V973H286.717V967.798L330.934 907.669H289.318V901.09H341.338V905.527ZM358.035 973V901.09H365.991V973H358.035ZM362.166 882.577C360.534 882.577 359.106 882.067 357.882 881.047C356.76 879.925 356.199 878.395 356.199 876.457C356.199 874.417 356.76 872.836 357.882 871.714C359.004 870.592 360.381 870.031 362.013 870.031C363.543 870.031 364.869 870.592 365.991 871.714C367.215 872.734 367.827 874.315 367.827 876.457C367.827 878.497 367.266 880.027 366.144 881.047C365.022 882.067 363.696 882.577 362.166 882.577ZM415.55 974.224C412.184 974.224 409.022 973.816 406.064 973C403.106 972.082 400.556 970.858 398.414 969.328V1008.19H390.458V900.172H397.037L398.261 909.352C400.607 907.006 403.565 904.915 407.135 903.079C410.705 901.141 415.04 900.172 420.14 900.172C424.526 900.172 428.555 900.937 432.227 902.467C436.001 903.997 439.265 906.241 442.019 909.199C444.773 912.157 446.915 915.829 448.445 920.215C449.975 924.601 450.74 929.599 450.74 935.209C450.74 941.941 449.72 947.755 447.68 952.651C445.742 957.547 443.09 961.627 439.724 964.891C436.46 968.053 432.686 970.399 428.402 971.929C424.22 973.459 419.936 974.224 415.55 974.224ZM418.457 906.598C416.111 906.598 413.867 906.955 411.725 907.669C409.685 908.281 407.798 909.097 406.064 910.117C404.33 911.137 402.8 912.259 401.474 913.483C400.148 914.707 399.128 915.88 398.414 917.002V962.749C400.658 964.483 403.157 965.758 405.911 966.574C408.767 967.39 411.623 967.798 414.479 967.798C418.049 967.798 421.517 967.237 424.883 966.115C428.249 964.993 431.207 963.157 433.757 960.607C436.409 957.955 438.5 954.589 440.03 950.509C441.662 946.327 442.478 941.227 442.478 935.209C442.478 926.131 440.489 919.093 436.511 914.095C432.635 909.097 426.617 906.598 418.457 906.598Z" fill="#777"/>
<path d="M0 370C0 70 173 0 370 0C567 0 740 70 740 370C740 670 567 740 370 740C173 740 0 670 0 370Z" fill="#FAFA00"/>
<path d="M346.787 183H395.467L544.473 557H487.483L446.521 453.111H292.765L252.397 557H196L346.787 183ZM307.606 409.775H430.492L405.559 345.067C398.831 328.049 392.696 311.624 387.156 295.794C381.615 279.963 376.074 263.737 370.533 247.114H369.346C363.805 263.737 358.067 279.765 352.13 295.2C346.194 310.635 339.861 327.257 333.133 345.067L307.606 409.775Z" fill="white"/>
</svg>
