<svg height="140" viewBox="0 0 740 1009" fill="none" xmlns="http://www.w3.org/2000/svg">
<path d="M341.338 905.527L296.356 966.421H342.103V973H286.717V967.798L330.934 907.669H289.318V901.09H341.338V905.527ZM358.035 973V901.09H365.991V973H358.035ZM362.166 882.577C360.534 882.577 359.106 882.067 357.882 881.047C356.76 879.925 356.199 878.395 356.199 876.457C356.199 874.417 356.76 872.836 357.882 871.714C359.004 870.592 360.381 870.031 362.013 870.031C363.543 870.031 364.869 870.592 365.991 871.714C367.215 872.734 367.827 874.315 367.827 876.457C367.827 878.497 367.266 880.027 366.144 881.047C365.022 882.067 363.696 882.577 362.166 882.577ZM415.55 974.224C412.184 974.224 409.022 973.816 406.064 973C403.106 972.082 400.556 970.858 398.414 969.328V1008.19H390.458V900.172H397.037L398.261 909.352C400.607 907.006 403.565 904.915 407.135 903.079C410.705 901.141 415.04 900.172 420.14 900.172C424.526 900.172 428.555 900.937 432.227 902.467C436.001 903.997 439.265 906.241 442.019 909.199C444.773 912.157 446.915 915.829 448.445 920.215C449.975 924.601 450.74 929.599 450.74 935.209C450.74 941.941 449.72 947.755 447.68 952.651C445.742 957.547 443.09 961.627 439.724 964.891C436.46 968.053 432.686 970.399 428.402 971.929C424.22 973.459 419.936 974.224 415.55 974.224ZM418.457 906.598C416.111 906.598 413.867 906.955 411.725 907.669C409.685 908.281 407.798 909.097 406.064 910.117C404.33 911.137 402.8 912.259 401.474 913.483C400.148 914.707 399.128 915.88 398.414 917.002V962.749C400.658 964.483 403.157 965.758 405.911 966.574C408.767 967.39 411.623 967.798 414.479 967.798C418.049 967.798 421.517 967.237 424.883 966.115C428.249 964.993 431.207 963.157 433.757 960.607C436.409 957.955 438.5 954.589 440.03 950.509C441.662 946.327 442.478 941.227 442.478 935.209C442.478 926.131 440.489 919.093 436.511 914.095C432.635 909.097 426.617 906.598 418.457 906.598Z" fill="#777"/>
<path d="M0 370C0 70 173 0 370 0C567 0 740 70 740 370C740 670 567 740 370 740C173 740 0 670 0 370Z" fill="#FAFA00"/>
<path d="M413.6 545.2C412.2 538.2 411.267 532.367 410.8 527.7C410.8 522.567 410.567 516.733 410.1 510.2C394.233 526.067 377.2 537.733 359 545.2C341.267 552.667 322.833 556.4 303.7 556.4C271.967 556.4 247.467 547.767 230.2 530.5C213.4 513.233 205 492 205 466.8C205 444.4 211.067 425.5 223.2 410.1C235.333 394.233 251.2 381.4 270.8 371.6C290.4 361.333 312.1 353.633 335.9 348.5C359.7 342.9 383.267 339.867 406.6 339.4V300.9C406.6 287.367 404.967 275 401.7 263.8C398.9 252.133 393.533 243.033 385.6 236.5C377.667 229.5 366 226 350.6 226C340.333 226.467 329.833 228.8 319.1 233C308.833 236.733 300.667 242.8 294.6 251.2C298.333 255.4 300.667 260.067 301.6 265.2C302.533 269.867 303 274.067 303 277.8C303 286.2 299.733 295.067 293.2 304.4C286.667 313.267 276.167 317.467 261.7 317C249.1 316.533 239.3 312.1 232.3 303.7C225.767 295.3 222.5 285.267 222.5 273.6C222.5 255.867 228.8 240.467 241.4 227.4C254.467 213.867 271.967 203.367 293.9 195.9C315.833 187.967 340.333 184 367.4 184C407.533 184 438.333 194.5 459.8 215.5C481.267 236.5 491.767 270.1 491.3 316.3C491.3 332.633 491.3 347.567 491.3 361.1C491.3 374.167 491.067 387.467 490.6 401C490.6 414.067 490.6 428.767 490.6 445.1C490.6 452.1 490.367 460.967 489.9 471.7C489.433 481.967 488.733 492.233 487.8 502.5C496.2 501.567 504.6 501.1 513 501.1C521.867 500.633 529.1 500.167 534.7 499.7V545.2H413.6ZM405.9 380.7C391.9 381.633 378.133 383.967 364.6 387.7C351.067 390.967 338.933 395.633 328.2 401.7C317.467 407.767 308.833 415.467 302.3 424.8C296.233 433.667 293.433 443.933 293.9 455.6C294.367 470.067 299.033 480.8 307.9 487.8C316.767 494.333 327.033 497.6 338.7 497.6C352.233 497.6 364.367 494.8 375.1 489.2C386.3 483.6 396.567 476.133 405.9 466.8C405.9 462.133 405.9 457.233 405.9 452.1C405.9 446.967 405.9 441.833 405.9 436.7C405.9 430.167 405.9 422 405.9 412.2C405.9 402.4 405.9 391.9 405.9 380.7Z" fill="white"/>
</svg>
