<svg height="140" viewBox="0 0 740 1009" fill="none" xmlns="http://www.w3.org/2000/svg">
<path d="M341.338 905.527L296.356 966.421H342.103V973H286.717V967.798L330.934 907.669H289.318V901.09H341.338V905.527ZM358.035 973V901.09H365.991V973H358.035ZM362.166 882.577C360.534 882.577 359.106 882.067 357.882 881.047C356.76 879.925 356.199 878.395 356.199 876.457C356.199 874.417 356.76 872.836 357.882 871.714C359.004 870.592 360.381 870.031 362.013 870.031C363.543 870.031 364.869 870.592 365.991 871.714C367.215 872.734 367.827 874.315 367.827 876.457C367.827 878.497 367.266 880.027 366.144 881.047C365.022 882.067 363.696 882.577 362.166 882.577ZM415.55 974.224C412.184 974.224 409.022 973.816 406.064 973C403.106 972.082 400.556 970.858 398.414 969.328V1008.19H390.458V900.172H397.037L398.261 909.352C400.607 907.006 403.565 904.915 407.135 903.079C410.705 901.141 415.04 900.172 420.14 900.172C424.526 900.172 428.555 900.937 432.227 902.467C436.001 903.997 439.265 906.241 442.019 909.199C444.773 912.157 446.915 915.829 448.445 920.215C449.975 924.601 450.74 929.599 450.74 935.209C450.74 941.941 449.72 947.755 447.68 952.651C445.742 957.547 443.09 961.627 439.724 964.891C436.46 968.053 432.686 970.399 428.402 971.929C424.22 973.459 419.936 974.224 415.55 974.224ZM418.457 906.598C416.111 906.598 413.867 906.955 411.725 907.669C409.685 908.281 407.798 909.097 406.064 910.117C404.33 911.137 402.8 912.259 401.474 913.483C400.148 914.707 399.128 915.88 398.414 917.002V962.749C400.658 964.483 403.157 965.758 405.911 966.574C408.767 967.39 411.623 967.798 414.479 967.798C418.049 967.798 421.517 967.237 424.883 966.115C428.249 964.993 431.207 963.157 433.757 960.607C436.409 957.955 438.5 954.589 440.03 950.509C441.662 946.327 442.478 941.227 442.478 935.209C442.478 926.131 440.489 919.093 436.511 914.095C432.635 909.097 426.617 906.598 418.457 906.598Z" fill="#777"/>
<path d="M0 370C0 70 173 0 370 0C567 0 740 70 740 370C740 670 567 740 370 740C173 740 0 670 0 370Z" fill="#FAFA00"/>
<path d="M446.379 493.768V303.387C446.379 288.803 443.417 276.157 437.492 265.447C431.796 254.51 423.137 246.079 411.516 240.154C399.895 234.23 385.539 231.268 368.449 231.268C352.499 231.268 338.485 234.002 326.408 239.471C314.559 244.939 305.217 252.117 298.381 261.004C291.773 269.891 288.469 279.461 288.469 289.715H225.236C225.236 276.499 228.654 263.396 235.49 250.408C242.326 237.42 252.124 225.685 264.885 215.203C277.873 204.493 293.368 196.062 311.369 189.91C329.598 183.53 349.878 180.34 372.209 180.34C399.097 180.34 422.795 184.897 443.303 194.012C464.038 203.126 480.217 216.912 491.838 235.369C503.687 253.598 509.611 276.499 509.611 304.07V476.336C509.611 488.641 510.637 501.743 512.688 515.643C514.966 529.542 518.27 541.505 522.6 551.531L525 557H456.633C453.443 549.708 450.936 540.024 449.113 527.947C447.29 515.643 446.379 504.249 446.379 493.768ZM457.316 332.781L458 377.215H394.084C376.083 377.215 360.018 378.696 345.891 381.658C331.763 384.393 319.914 388.608 310.344 394.305C300.773 400.001 293.482 407.179 288.469 415.838C283.456 424.269 280.949 434.181 280.949 445.574C280.949 457.195 283.57 467.791 288.811 477.361C294.051 486.932 301.913 494.565 312.395 500.262C323.104 505.73 336.206 508.465 351.701 508.465C371.07 508.465 388.16 504.363 402.971 496.16C417.782 487.957 429.517 477.931 438.176 466.082C447.062 454.233 451.848 442.726 452.531 431.561L479.533 461.98C477.938 471.551 473.609 482.146 466.545 493.768C459.481 505.389 450.025 516.554 438.176 527.264C426.555 537.745 412.655 546.518 396.477 553.582C380.526 560.418 362.525 563.836 342.473 563.836C317.408 563.836 295.419 558.937 276.506 549.139C257.821 539.34 243.238 526.238 232.756 509.832C222.502 493.198 217.375 474.627 217.375 454.119C217.375 434.295 221.249 416.863 228.996 401.824C236.743 386.557 247.909 373.911 262.492 363.885C277.076 353.631 294.621 345.883 315.129 340.643C335.637 335.402 358.537 332.781 383.83 332.781H457.316Z" fill="white"/>
</svg>
